<svg xmlns="http://www.w3.org/2000/svg" width="170" height="28" viewBox="0 0 170 28">
    <g fill="none" fill-rule="nonzero" transform="translate(-2 -2)">
        <path fill="#414042" d="M57.996 27.528a1.7 1.7 0 0 1-1.702 1.684c-.45-.01-.879-.198-1.194-.523l-7.167-7.853-2.545 2.45v3.98a1.93 1.93 0 0 1-1.918 1.94 1.93 1.93 0 0 1-1.92-1.94V4.84c0-1.071.86-1.94 1.92-1.94a1.93 1.93 0 0 1 1.918 1.94v13.873l8.144-8.274c.357-.326.813-.52 1.293-.549.96 0 1.738.787 1.738 1.757a1.89 1.89 0 0 1-.45 1.237l-5.829 5.675 7.205 7.767c.317.319.499.75.507 1.203zM59.91 4.776c.043-1.048 1.012-1.877 2.193-1.877 1.18 0 2.15.83 2.193 1.877-.043 1.047-1.012 1.876-2.193 1.876-1.18 0-2.15-.829-2.193-1.876zm4.354 7.283V27.23c.029.7-.375 1.357-1.053 1.714a2.39 2.39 0 0 1-2.199 0c-.678-.357-1.081-1.015-1.053-1.714V12.059c-.028-.7.375-1.357 1.053-1.714a2.39 2.39 0 0 1 2.2 0c.677.357 1.08 1.014 1.052 1.714zM80.66 12.556c.31.389.489.871.512 1.375 0 .929-.68 1.486-1.535 1.486-.573 0-1.11-.265-1.648-1.003a3.809 3.809 0 0 0-3.185-1.56c-1.79 0-2.865.928-2.865 2.266 0 .93.511 1.821 2.4 2.389l2.217.632c3.045.854 5.337 2.264 5.337 5.385 0 3.902-3.546 5.872-7.268 5.872-3.116 0-5.301-1.413-6.232-2.936-.18-.265-.753-1.003-.753-1.895 0-.78.466-1.593 1.469-1.593.824 0 1.254.531 1.612 1.078.895 1.56 2.364 2.08 3.904 2.08 2.075 0 3.507-.891 3.507-2.388 0-1.115-.752-1.932-2.54-2.453l-2.4-.668c-3.474-1.001-4.978-2.933-4.978-5.46 0-3.493 3.044-5.5 6.518-5.5 2.564-.005 4.785 1.072 5.928 2.893zM97.087 12.556c.31.389.489.871.512 1.375 0 .929-.68 1.486-1.535 1.486-.573 0-1.11-.265-1.648-1.003a3.809 3.809 0 0 0-3.188-1.56c-1.79 0-2.862.928-2.862 2.266 0 .93.511 1.821 2.397 2.389l2.22.632c3.045.854 5.337 2.264 5.337 5.385 0 3.902-3.546 5.872-7.27 5.872-3.114 0-5.3-1.413-6.23-2.936-.18-.265-.753-1.003-.753-1.895 0-.78.466-1.593 1.469-1.593.824 0 1.254.531 1.612 1.078.895 1.56 2.361 2.08 3.901 2.08 2.078 0 3.51-.891 3.51-2.388 0-1.115-.752-1.932-2.543-2.453l-2.4-.668c-3.471-1.001-4.976-2.933-4.976-5.46 0-3.493 3.045-5.5 6.517-5.5 2.563-.005 4.774 1.072 5.93 2.893zM113.647 5.515a1.38 1.38 0 0 1-.385 1 1.294 1.294 0 0 1-.97.397 4.256 4.256 0 0 1-1.32-.358 3.673 3.673 0 0 0-1.632-.43c-1.945 0-2.57 1.505-2.57 2.972v1.226h3.473c.903 0 1.528.609 1.528 1.505.017.42-.14.827-.431 1.12-.292.293-.69.444-1.097.415h-3.474v13.9a1.896 1.896 0 0 1-.89 1.686 1.776 1.776 0 0 1-1.863 0 1.896 1.896 0 0 1-.891-1.687V13.36h-1.14a1.38 1.38 0 0 1-1.08-.422 1.475 1.475 0 0 1-.408-1.114c-.019-.41.133-.808.418-1.095a1.37 1.37 0 0 1 1.07-.407h1.147V8.955c0-4.91 3.506-6.056 5.764-6.056 1.563 0 2.883.43 3.82 1.11.591.395.93.86.93 1.506zm5.486-.256v21.956c0 1.049-.825 1.9-1.841 1.9-1.017 0-1.841-.851-1.841-1.9V5.264c0-1.049.824-1.9 1.84-1.9 1.017 0 1.842.851 1.842 1.9v-.005zM141.357 19.55c0 6.613-5.268 9.848-9.336 9.848-4.069 0-9.302-3.222-9.302-9.848 0-6.626 5.236-9.887 9.314-9.887 4.079 0 9.324 3.296 9.324 9.887zm-14.923 0c0 4.182 2.863 6.44 5.587 6.44 2.724 0 5.624-2.258 5.624-6.44 0-4.232-2.865-6.48-5.624-6.48-2.76 0-5.587 2.259-5.587 6.48zM171.387 12.405c-.04.295-.126.583-.255.852l-5.011 14.59c-.32.923-.997 1.42-1.78 1.42-.784 0-1.46-.507-1.852-1.42l-4.806-11.714-4.83 11.714c-.357.923-1.033 1.42-1.817 1.42-.783 0-1.46-.507-1.78-1.42l-5.024-14.59a2.848 2.848 0 0 1-.254-.852 1.755 1.755 0 0 1 .516-1.261c.335-.334.79-.52 1.264-.515a1.737 1.737 0 0 1 1.602 1.03l3.918 12.07 4.7-11.92c.245-.725.94-1.201 1.705-1.172a1.765 1.765 0 0 1 1.71 1.172l4.698 11.92 3.919-12.07c.178-.64.923-1.03 1.6-1.03.472-.004.927.182 1.262.516.334.334.52.788.515 1.26z"/>
        <ellipse cx="25.881" cy="10.034" fill="#1F80FF" rx="8.605" ry="5.156" transform="rotate(-44.81 25.881 10.034)"/>
        <ellipse cx="23.952" cy="24.44" fill="#48AD1E" rx="3.884" ry="6.166" transform="rotate(-45.21 23.952 24.44)"/>
        <ellipse cx="9.848" cy="10.039" fill="#D32A97" rx="5.156" ry="8.605" transform="rotate(-45.19 9.848 10.039)"/>
        <ellipse cx="11.781" cy="24.439" fill="#FF6529" rx="6.166" ry="3.884" transform="rotate(-44.79 11.78 24.439)"/>
    </g>
</svg>
